<svg width="100" height="100" viewBox="0 0 100 100" fill="none" xmlns="http://www.w3.org/2000/svg">
  <!-- Outer Circle -->
  <circle cx="50" cy="50" r="45" stroke="#76b900" strokeWidth="2.5" />

  <!-- Calculator -->
  <rect x="35" y="25" width="22" height="28" rx="2" stroke="#76b900" strokeWidth="2" fill="#76b900" fillOpacity="0.08" />
  <rect x="39" y="29" width="14" height="6" rx="0.5" stroke="#76b900" strokeWidth="1.5" />
  <circle cx="41" cy="40" r="1" fill="#76b900" />
  <circle cx="46" cy="40" r="1" fill="#76b900" />
  <circle cx="51" cy="40" r="1" fill="#76b900" />
  <circle cx="41" cy="44" r="1" fill="#76b900" />
  <circle cx="46" cy="44" r="1" fill="#76b900" />
  <circle cx="51" cy="44" r="1" fill="#76b900" />
  <circle cx="41" cy="48" r="1" fill="#76b900" />
  <circle cx="46" cy="48" r="1" fill="#76b900" />
  <circle cx="51" cy="48" r="1" fill="#76b900" />

  <!-- Pen -->
  <path d="M62 32L68 52" stroke="#76b900" strokeWidth="2.5" strokeLinecap="round" />
  <path d="M64 35H69" stroke="#76b900" strokeWidth="1.5" strokeLinecap="round" />

  <!-- Pocket -->
  <path d="M28 45H72V62C72 70 65 77 50 77C35 77 28 70 28 62V45Z" fill="transparent" stroke="#76b900" strokeWidth="2.5" strokeLinejoin="round" />
  <path d="M33 49V62C33 68 40 73 50 73C60 73 67 68 67 62V49" stroke="#76b900" strokeWidth="1" strokeDasharray="2 2" opacity="0.4" />
</svg>
